<?xml version="1.0" encoding="UTF-8" standalone="no"?>
<!DOCTYPE svg PUBLIC "-//W3C//DTD SVG 1.1//EN" "http://www.w3.org/Graphics/SVG/1.1/DTD/svg11.dtd">
<svg width="100%" height="100%" viewBox="0 0 60 60" version="1.1" xmlns="http://www.w3.org/2000/svg" xmlns:xlink="http://www.w3.org/1999/xlink" xml:space="preserve" xmlns:serif="http://www.serif.com/" style="fill-rule:evenodd;clip-rule:evenodd;stroke-linejoin:round;stroke-miterlimit:2;">
    <g transform="matrix(1,0,0,1,-2,-10)">
        <g>
            <g transform="matrix(1,0,0,1,0,8)">
                <rect x="2" y="2" width="42" height="6" style="fill:white;"/>
            </g>
            <g transform="matrix(1,0,0,1,0,8)">
                <rect x="46" y="2" width="6" height="6" style="fill:white;"/>
            </g>
            <g transform="matrix(1,0,0,1,0,8)">
                <path d="M40.9,51.2C40,51.7 39,52 38,52C34.7,52 32,49.3 32,46C32,42.7 34.7,40 38,40C39,40 40,40.3 40.9,40.8L52,34.1L52,10L2,10L2,62L52,62L52,57.9L40.9,51.2ZM13,14L11,14C10.4,14 10,14.4 10,15L10,18.2C10,18.7 9.8,19.2 9.4,19.6L9,20L9.4,20.4C9.8,20.8 10,21.3 10,21.8L10,25C10,25.6 10.4,26 11,26L13,26L13,28L11,28C9.3,28 8,26.7 8,25L8,22C8,21.4 7.6,21 7,21L6,21L6,19L7,19C7.6,19 8,18.6 8,18L8,15C8,13.3 9.3,12 11,12L13,12L13,14ZM24,21L23,21C22.4,21 22,21.4 22,22L22,25C22,26.7 20.7,28 19,28L17,28L17,26L19,26C19.6,26 20,25.6 20,25L20,21.8C20,21.3 20.2,20.8 20.6,20.4L21,20L20.6,19.6C20.2,19.2 20,18.7 20,18.2L20,15C20,14.4 19.6,14 19,14L17,14L17,12L19,12C20.7,12 22,13.3 22,15L22,18C22,18.6 22.4,19 23,19L24,19L24,21Z" style="fill:white;fill-rule:nonzero;"/>
            </g>
            <g transform="matrix(1,0,0,1,0,8)">
                <path d="M58,54C56.9,54 55.9,54.4 55.2,55.2L41.8,47.2C41.9,46.8 42,46.5 42,46.1C42,45.7 41.9,45.3 41.8,45L55.2,37C55.9,37.7 56.9,38.2 58,38.2C60.2,38.2 62,36.4 62,34.2C62,32 60.2,30.2 58,30.2C55.8,30.2 54,32 54,34.2C54,34.6 54.1,35 54.2,35.3L40.8,43.3C40.1,42.4 39.1,42 38,42C35.8,42 34,43.8 34,46C34,48.2 35.8,50 38,50C39.1,50 40.1,49.6 40.8,48.8L54.2,56.8C54.1,57.2 54,57.6 54,58C54,60.2 55.8,62 58,62C60.2,62 62,60.2 62,58C62,55.8 60.2,54 58,54Z" style="fill:white;fill-rule:nonzero;"/>
            </g>
        </g>
    </g>
</svg>
