<?xml version="1.0" encoding="UTF-8" standalone="no"?>
<!DOCTYPE svg PUBLIC "-//W3C//DTD SVG 1.1//EN" "http://www.w3.org/Graphics/SVG/1.1/DTD/svg11.dtd">
<svg width="100%" height="100%" viewBox="0 0 128 128" version="1.1" xmlns="http://www.w3.org/2000/svg" xmlns:xlink="http://www.w3.org/1999/xlink" xml:space="preserve" xmlns:serif="http://www.serif.com/" style="fill-rule:evenodd;clip-rule:evenodd;stroke-linejoin:round;stroke-miterlimit:2;">
    <g>
        <g>
            <path d="M65.41,56.59C65.035,56.215 64.526,56.003 63.995,56.003C63.464,56.003 62.955,56.215 62.58,56.59L56.58,62.59C56.205,62.965 55.993,63.474 55.993,64.005C55.993,64.536 56.205,65.045 56.58,65.42L62.58,71.42C62.955,71.795 63.464,72.007 63.995,72.007C64.526,72.007 65.035,71.795 65.41,71.42L71.41,65.42C71.785,65.045 71.997,64.536 71.997,64.005C71.997,63.474 71.785,62.965 71.41,62.59L65.41,56.59Z" style="fill:white;fill-rule:nonzero;"/>
            <circle cx="34.63" cy="34.42" r="1.68" style="fill:white;"/>
            <path d="M93.62,36.1C93.64,36.101 93.66,36.101 93.68,36.101C94.602,36.101 95.36,35.343 95.36,34.421C95.36,33.499 94.602,32.741 93.68,32.741C92.759,32.741 92.001,33.499 92,34.42C91.999,35.319 92.721,36.068 93.62,36.1Z" style="fill:white;fill-rule:nonzero;"/>
            <path d="M112,41C112.529,40.998 113.037,40.785 113.41,40.41L118.83,35L126,35C127.097,35 128,34.097 128,33C128,31.903 127.097,31 126,31L118,31C117.471,31.002 116.963,31.215 116.59,31.59L111.17,37L105,37L105,27C105,24.806 103.194,23 101,23L90,23L90,16.83L95.41,11.41C95.785,11.037 95.998,10.529 96,10L96,2C96,0.903 95.097,0 94,0C92.903,-0 92,0.903 92,2L92,9.17L86.59,14.59C86.215,14.963 86.002,15.471 86,16L86,23L82,23L82,15.83L87.41,10.41C87.785,10.037 87.998,9.529 88,9L88,2C88,0.903 87.097,0 86,0C84.903,-0 84,0.903 84,2L84,8.17L78.59,13.59C78.215,13.963 78.002,14.471 78,15L78,23L74,23L74,13.83L79.41,8.41C79.785,8.037 79.998,7.529 80,7L80,2C80,0.903 79.097,0 78,0C76.903,-0 76,0.903 76,2L76,6.17L70.59,11.59C70.215,11.963 70.002,12.471 70,13L70,23L66,23L66,5C66,3.903 65.097,3 64,3C62.903,3 62,3.903 62,5L62,23L58,23L58,13C57.998,12.471 57.785,11.963 57.41,11.59L52,6.17L52,2C52,0.903 51.097,0 50,0C48.903,-0 48,0.903 48,2L48,7C48.002,7.529 48.215,8.037 48.59,8.41L54,13.83L54,23L50,23L50,15C49.998,14.471 49.785,13.963 49.41,13.59L44,8.17L44,2C44,0.903 43.097,0 42,0C40.903,-0 40,0.903 40,2L40,9C40.002,9.529 40.215,10.037 40.59,10.41L46,15.83L46,23L42,23L42,16C41.998,15.471 41.785,14.963 41.41,14.59L36,9.17L36,2C36,0.903 35.097,0 34,0C32.903,-0 32,0.903 32,2L32,10C32.002,10.529 32.215,11.037 32.59,11.41L38,16.83L38,23L27,23C24.806,23 23,24.806 23,27L23,37L16.83,37L11.41,31.59C11.037,31.215 10.529,31.002 10,31L2,31C0.903,31 -0,31.903 0,33C0,34.097 0.903,35 2,35L9.17,35L14.59,40.41C14.963,40.785 15.471,40.998 16,41L23,41L23,45L15.83,45L10.41,39.59C10.037,39.215 9.529,39.002 9,39L2,39C0.903,39 -0,39.903 0,41C0,42.097 0.903,43 2,43L8.17,43L13.59,48.41C13.963,48.785 14.471,48.998 15,49L23,49L23,53L13.83,53L8.41,47.59C8.037,47.215 7.529,47.002 7,47L2,47C0.903,47 -0,47.903 0,49C0,50.097 0.903,51 2,51L6.17,51L11.59,56.41C11.963,56.785 12.471,56.998 13,57L23,57L23,61L5,61C3.903,61 3,61.903 3,63C3,64.097 3.903,65 5,65L23,65L23,69L13,69C12.471,69.002 11.963,69.215 11.59,69.59L6.17,75L2,75C0.903,75 -0,75.903 0,77C0,78.097 0.903,79 2,79L7,79C7.529,78.998 8.037,78.785 8.41,78.41L13.83,73L23,73L23,77L15,77C14.471,77.002 13.963,77.215 13.59,77.59L8.17,83L2,83C0.903,83 -0,83.903 0,85C0,86.097 0.903,87 2,87L9,87C9.529,86.998 10.037,86.785 10.41,86.41L15.83,81L23,81L23,85L16,85C15.471,85.002 14.963,85.215 14.59,85.59L9.17,91L2,91C0.903,91 -0,91.903 0,93C0,94.097 0.903,95 2,95L10,95C10.529,94.998 11.037,94.785 11.41,94.41L16.83,89L23,89L23,101C23,103.194 24.806,105 27,105L38,105L38,111.17L32.59,116.59C32.215,116.963 32.002,117.471 32,118L32,126C32,127.097 32.903,128 34,128C35.097,128 36,127.097 36,126L36,118.83L41.41,113.41C41.785,113.037 41.998,112.529 42,112L42,105L46,105L46,112.17L40.59,117.59C40.215,117.963 40.002,118.471 40,119L40,126C40,127.097 40.903,128 42,128C43.097,128 44,127.097 44,126L44,119.83L49.41,114.41C49.785,114.037 49.998,113.529 50,113L50,105L54,105L54,114.17L48.59,119.59C48.215,119.963 48.002,120.471 48,121L48,126C48,127.097 48.903,128 50,128C51.097,128 52,127.097 52,126L52,121.83L57.41,116.41C57.785,116.037 57.998,115.529 58,115L58,105L62,105L62,123C62,124.097 62.903,125 64,125C65.097,125 66,124.097 66,123L66,105L70,105L70,115C70.002,115.529 70.215,116.037 70.59,116.41L76,121.83L76,126C76,127.097 76.903,128 78,128C79.097,128 80,127.097 80,126L80,121C79.998,120.471 79.785,119.963 79.41,119.59L74,114.17L74,105L78,105L78,113C78.002,113.529 78.215,114.037 78.59,114.41L84,119.83L84,126C84,127.097 84.903,128 86,128C87.097,128 88,127.097 88,126L88,119C87.998,118.471 87.785,117.963 87.41,117.59L82,112.17L82,105L86,105L86,112C86.002,112.529 86.215,113.037 86.59,113.41L92,118.83L92,126C92,127.097 92.903,128 94,128C95.097,128 96,127.097 96,126L96,118C95.998,117.471 95.785,116.963 95.41,116.59L90,111.17L90,105L101,105C103.194,105 105,103.194 105,101L105,89L111.17,89L116.59,94.41C116.963,94.785 117.471,94.998 118,95L126,95C127.097,95 128,94.097 128,93C128,91.903 127.097,91 126,91L118.83,91L113.41,85.59C113.037,85.215 112.529,85.002 112,85L105,85L105,81L112.17,81L117.59,86.41C117.963,86.785 118.471,86.998 119,87L126,87C127.097,87 128,86.097 128,85C128,83.903 127.097,83 126,83L119.83,83L114.41,77.59C114.037,77.215 113.529,77.002 113,77L105,77L105,73L114.17,73L119.59,78.41C119.963,78.785 120.471,78.998 121,79L126,79C127.097,79 128,78.097 128,77C128,75.903 127.097,75 126,75L121.83,75L116.41,69.59C116.037,69.215 115.529,69.002 115,69L105,69L105,65L123,65C124.097,65 125,64.097 125,63C125,61.903 124.097,61 123,61L105,61L105,57L115,57C115.529,56.998 116.037,56.785 116.41,56.41L121.83,51L126,51C127.097,51 128,50.097 128,49C128,47.903 127.097,47 126,47L121,47C120.471,47.002 119.963,47.215 119.59,47.59L114.17,53L105,53L105,49L113,49C113.529,48.998 114.037,48.785 114.41,48.41L119.83,43L126,43C127.097,43 128,42.097 128,41C128,39.903 127.097,39 126,39L119,39C118.471,39.002 117.963,39.215 117.59,39.59L112.17,45L105,45L105,41L112,41ZM27,46.81L32.34,46.81L33.28,47.07L39.34,50.67L39.34,56L34.4,53.09C34.097,52.91 33.752,52.814 33.4,52.81L27,52.81L27,46.81ZM27,56.81L32.34,56.81L33.28,57.07L39.34,60.67L39.34,66L34.4,63.09C34.097,62.91 33.752,62.814 33.4,62.81L27,62.81L27,56.81ZM27,66.81L32.34,66.81L33.28,67.07L39.34,70.67L39.34,76L34.4,73.09C34.097,72.91 33.752,72.814 33.4,72.81L27,72.81L27,66.81ZM34.62,99.1C31.504,99.1 28.94,96.536 28.94,93.42C28.94,90.304 31.504,87.74 34.62,87.74C37.736,87.74 40.3,90.304 40.3,93.42C40.3,96.536 37.736,99.1 34.62,99.1ZM34.62,40.1C31.504,40.1 28.94,37.536 28.94,34.42C28.94,31.304 31.504,28.74 34.62,28.74C37.736,28.74 40.3,31.304 40.3,34.42C40.295,37.53 37.74,40.089 34.63,40.1L34.62,40.1ZM71,27L77,27L77,39.33L71,39.33L71,27ZM61,27L67,27L67,39.33L61,39.33L61,27ZM51,27L57,27L57,39.33L51,39.33L51,27ZM43.33,43.33L52.75,43.33L52.75,47.7C51.23,48.277 50.027,49.48 49.45,51L43.33,51L43.33,43.33ZM43.33,84.66L43.33,77L49.45,77C50.027,78.52 51.23,79.723 52.75,80.3L52.75,84.67L43.33,84.66ZM57,101L51,101L51,88.67L57,88.67L57,101ZM67,101L61,101L61,88.67L67,88.67L67,101ZM77,101L71,101L71,88.67L77,88.67L77,101ZM84.67,84.67L74.67,84.67L74.67,80.3C76.202,79.73 77.416,78.527 78,77L84.7,77L84.67,84.67ZM84.67,73L78,73C77.168,70.807 75.054,69.348 72.708,69.348C69.603,69.348 67.048,71.903 67.048,75.008C67.048,77.354 68.507,79.468 70.7,80.3L70.7,84.67L56.75,84.67L56.75,80.3C58.943,79.468 60.402,77.354 60.402,75.008C60.402,71.903 57.847,69.348 54.742,69.348C52.396,69.348 50.282,70.807 49.45,73L43.33,73L43.33,55L49.45,55C50.282,57.193 52.396,58.652 54.742,58.652C57.847,58.652 60.402,56.097 60.402,52.992C60.402,50.646 58.943,48.532 56.75,47.7L56.75,43.33L70.67,43.33L70.67,47.7C68.495,48.542 67.053,50.646 67.053,52.978C67.053,56.083 69.608,58.638 72.713,58.638C75.054,58.638 77.164,57.186 78,55L84.7,55L84.67,73ZM84.67,51L78,51C77.425,49.482 76.227,48.28 74.71,47.7L74.71,43.33L84.71,43.33L84.67,51ZM93.62,28.74L93.68,28.74C96.796,28.74 99.36,31.304 99.36,34.42C99.36,37.536 96.796,40.1 93.68,40.1C90.564,40.1 88,37.536 88,34.42C88,31.327 90.527,28.773 93.62,28.74ZM93.67,99.1C90.554,99.1 87.99,96.536 87.99,93.42C87.99,90.304 90.554,87.74 93.67,87.74C96.786,87.74 99.35,90.304 99.35,93.42C99.345,96.538 96.778,99.1 93.66,99.1L93.63,99.1L93.67,99.1ZM101,72.81L94.63,72.81C94.278,72.814 93.933,72.91 93.63,73.09L88.67,76L88.67,70.67L94.73,67.07L95.67,66.81L101,66.81L101,72.81ZM101,62.81L94.63,62.81C94.278,62.814 93.933,62.91 93.63,63.09L88.67,66L88.67,60.67L94.73,57.07L95.67,56.81L101,56.81L101,62.81ZM101,52.81L94.63,52.81C94.278,52.814 93.933,52.91 93.63,53.09L88.67,56L88.67,50.67L94.73,47.07L95.67,46.81L101,46.81L101,52.81Z" style="fill:white;fill-rule:nonzero;"/>
            <path d="M34.62,91.74C33.698,91.74 32.94,92.498 32.94,93.42C32.94,94.342 33.698,95.1 34.62,95.1C35.542,95.1 36.3,94.342 36.3,93.42C36.3,92.498 35.542,91.74 34.62,91.74Z" style="fill:white;fill-rule:nonzero;"/>
            <circle cx="93.63" cy="93.42" r="1.68" style="fill:white;"/>
        </g>
    </g>
</svg>
