<?xml version="1.0" encoding="UTF-8" standalone="no"?>
<!DOCTYPE svg PUBLIC "-//W3C//DTD SVG 1.1//EN" "http://www.w3.org/Graphics/SVG/1.1/DTD/svg11.dtd">
<svg width="100%" height="100%" viewBox="0 0 222 222" version="1.1" xmlns="http://www.w3.org/2000/svg" xmlns:xlink="http://www.w3.org/1999/xlink" xml:space="preserve" xmlns:serif="http://www.serif.com/" style="fill-rule:evenodd;clip-rule:evenodd;stroke-linecap:round;stroke-linejoin:round;stroke-miterlimit:1.5;">
    <g transform="matrix(1,0,0,1,-69,-84)">
        <g>
            <g transform="matrix(0.836502,0,0,0.920502,51.597,57.6285)">
                <path d="M285,89.75C285,56.773 255.538,30 219.25,30L87.75,30C51.462,30 22,56.773 22,89.75L22,209.25C22,242.227 51.462,269 87.75,269L219.25,269C255.538,269 285,242.227 285,209.25L285,89.75Z" style="fill:rgb(198,208,253);stroke:black;stroke-width:1.14px;"/>
            </g>
            <g transform="matrix(1.28741,0,0,1.28741,37.9942,29.6358)">
                <g transform="matrix(1,0,0,1,-8.64288,42.8858)">
                    <g transform="matrix(1.70667,0,0,1.70667,84.7035,107.193)">
                        <g transform="matrix(1,0,0,1,-30,-37.5)">
                            <path d="M39.66,8.42C39.66,6.53 38.13,5 36.24,5L23.76,5C21.87,5 20.33,6.53 20.33,8.42L20.33,10.35L39.66,10.35L39.66,8.42Z" style="fill-rule:nonzero;"/>
                            <path d="M20.33,20.85C20.33,22.58 21.01,24.26 22.21,25.5L37.79,25.5C38.99,24.25 39.66,22.58 39.66,20.85L39.66,12.35L20.33,12.35L20.33,20.85Z" style="fill:rgb(0,144,255);fill-rule:nonzero;stroke:black;stroke-width:1px;stroke-linecap:butt;stroke-miterlimit:2;"/>
                            <path d="M17.56,33.25L42.44,33.25L42.44,30.64C42.44,28.91 41.03,27.5 39.29,27.5L20.71,27.5C18.97,27.5 17.56,28.91 17.56,30.64L17.56,33.25Z" style="fill-rule:nonzero;"/>
                            <path d="M17.56,51.85C17.56,53.59 18.97,55 20.71,55L39.29,55C41.03,55 42.44,53.59 42.44,51.85L42.44,35.25L36.25,35.25L36.25,36.66C36.25,37.22 35.8,37.66 35.25,37.66C34.7,37.66 34.25,37.22 34.25,36.66L34.25,35.25L25.75,35.25L25.75,36.66C25.75,37.22 25.3,37.66 24.75,37.66C24.2,37.66 23.75,37.22 23.75,36.66L23.75,35.25L17.56,35.25L17.56,51.85Z" style="fill-rule:nonzero;"/>
                        </g>
                    </g>
                    <g>
                        <g transform="matrix(1,0,0,1,31.7035,-8.31417)">
                            <path d="M68,125.332C68,122.633 65.809,120.442 63.111,120.442L42.889,120.442C40.191,120.442 38,122.633 38,125.332L38,135.111C38,137.809 40.191,140 42.889,140L63.111,140C65.809,140 68,137.809 68,135.111L68,125.332Z" style="fill:white;stroke:black;stroke-width:0.78px;"/>
                        </g>
                        <g transform="matrix(0.911569,0,0,0.911569,69.641,83.9389)">
                            <text x="7.115px" y="44.69px" style="font-family:'BradleyHandITCTT-Bold', 'Bradley Hand';font-weight:700;font-size:12px;">NO</text>
                        </g>
                    </g>
                </g>
                <g transform="matrix(1,0,0,1,8.64288,-2.13163e-14)">
                    <g transform="matrix(1.70667,0,0,1.70667,135.904,107.193)">
                        <g transform="matrix(1,0,0,1,-30,-37.5)">
                            <path d="M39.66,8.42C39.66,6.53 38.13,5 36.24,5L23.76,5C21.87,5 20.33,6.53 20.33,8.42L20.33,10.35L39.66,10.35L39.66,8.42Z" style="fill-rule:nonzero;"/>
                            <path d="M20.33,20.85C20.33,22.58 21.01,24.26 22.21,25.5L37.79,25.5C38.99,24.25 39.66,22.58 39.66,20.85L39.66,12.35L20.33,12.35L20.33,20.85Z" style="fill:rgb(0,144,255);fill-rule:nonzero;stroke:black;stroke-width:1px;stroke-linecap:butt;stroke-miterlimit:2;"/>
                            <path d="M17.56,33.25L42.44,33.25L42.44,30.64C42.44,28.91 41.03,27.5 39.29,27.5L20.71,27.5C18.97,27.5 17.56,28.91 17.56,30.64L17.56,33.25Z" style="fill-rule:nonzero;"/>
                            <path d="M17.56,51.85C17.56,53.59 18.97,55 20.71,55L39.29,55C41.03,55 42.44,53.59 42.44,51.85L42.44,35.25L36.25,35.25L36.25,36.66C36.25,37.22 35.8,37.66 35.25,37.66C34.7,37.66 34.25,37.22 34.25,36.66L34.25,35.25L25.75,35.25L25.75,36.66C25.75,37.22 25.3,37.66 24.75,37.66C24.2,37.66 23.75,37.22 23.75,36.66L23.75,35.25L17.56,35.25L17.56,51.85Z" style="fill-rule:nonzero;"/>
                        </g>
                    </g>
                    <g>
                        <g transform="matrix(1,0,0,1,82.9035,-8.31417)">
                            <path d="M68,125.332C68,122.633 65.809,120.442 63.111,120.442L42.889,120.442C40.191,120.442 38,122.633 38,125.332L38,135.111C38,137.809 40.191,140 42.889,140L63.111,140C65.809,140 68,137.809 68,135.111L68,125.332Z" style="fill:white;stroke:black;stroke-width:0.78px;"/>
                        </g>
                        <g transform="matrix(0.911569,0,0,0.911569,120.836,83.9389)">
                            <text x="7.115px" y="44.69px" style="font-family:'BradleyHandITCTT-Bold', 'Bradley Hand';font-weight:700;font-size:12px;">Yes</text>
                        </g>
                    </g>
                </g>
                <g transform="matrix(-1,-1.22465e-16,1.22465e-16,-1,144.546,151.818)">
                    <g transform="matrix(1,0,0,1,-19.635,-23.1813)">
                        <clipPath id="_clip1">
                            <rect x="0" y="0" width="39.27" height="46.363"/>
                        </clipPath>
                        <g clip-path="url(#_clip1)">
                            <g>
                                <g>
                                    <path d="M15,25.8C11.645,19.08 7.337,12.879 2.21,7.39C1.82,7 1.43,6.57 1,6.16C0.341,5.481 -0.028,4.571 -0.028,3.625C-0.028,1.629 1.614,-0.013 3.61,-0.013C4.593,-0.013 5.535,0.385 6.22,1.09C6.476,1.357 6.692,1.66 6.86,1.99C10.843,9.434 13.592,17.475 15,25.8Z" style="fill:rgb(0,144,255);fill-rule:nonzero;"/>
                                    <path d="M23.26,3.59C23.264,4.016 23.193,4.439 23.05,4.84L19.63,14.5L16.21,4.83C16.072,4.441 16.002,4.031 16.002,3.619C16.002,1.627 17.641,-0.011 19.632,-0.011C19.728,-0.011 19.824,-0.008 19.92,0C21.784,0.154 23.241,1.72 23.26,3.59Z" style="fill:rgb(0,144,255);fill-rule:nonzero;"/>
                                    <path d="M38.44,5.94L38,6.41C30.034,14.597 23.973,24.441 20.25,35.24C20.15,35.52 20.05,35.81 19.96,36.1L19.73,36.82L19.64,37.09C20.987,24.508 25.374,12.44 32.42,1.93C33.027,0.675 34.303,-0.126 35.697,-0.126C37.694,-0.126 39.337,1.517 39.337,3.514C39.337,4.404 39.011,5.264 38.42,5.93L38.44,5.94Z" style="fill:rgb(0,144,255);fill-rule:nonzero;"/>
                                </g>
                            </g>
                            <g transform="matrix(1,0,0,1,0,52.09)">
                                <text x="0px" y="0px" style="font-family:'HelveticaNeue-Bold', 'Helvetica Neue';font-weight:700;font-size:5px;">Created by Arnau Ligorred Estrella</text>
                            </g>
                            <g transform="matrix(1,0,0,1,0,57.09)">
                                <text x="0px" y="0px" style="font-family:'HelveticaNeue-Bold', 'Helvetica Neue';font-weight:700;font-size:5px;">from the Noun Project</text>
                            </g>
                        </g>
                    </g>
                </g>
            </g>
            <g transform="matrix(0.098008,0,0,0.098008,224.085,282.556)">
                <g transform="matrix(1,0,0,1,-287,-156.875)">
                    <clipPath id="_clip2">
                        <rect x="0" y="0" width="574" height="313.75"/>
                    </clipPath>
                    <g clip-path="url(#_clip2)">
                        <g>
                            <path d="M212,71L213,71C173,65 104,51 72,26C64,20 54,12 44,8C28,0 3,-2 2,22C2,23 2,25 3,26C7,24 11,23 15,23C30,22 79,61 110,66C146,71 179,73 212,71ZM573,184C511,60 503,36 390,13C375,10 292,3 275,0C253,-3 229,21 254,40C274,54 315,47 350,64C265,80 194,89 108,76C69,70 27,33 16,33C2,34 -7,48 7,59C105,140 221,167 347,161C399,159 457,212 480,251L574,191C574,189 574,186 573,184ZM149,44C137,37 100,12 85,23C109,42 186,60 256,68C259,68 169,24 149,44Z"/>
                        </g>
                    </g>
                </g>
            </g>
        </g>
    </g>
</svg>
