<?xml version="1.0" encoding="UTF-8" standalone="no"?>
<!DOCTYPE svg PUBLIC "-//W3C//DTD SVG 1.1//EN" "http://www.w3.org/Graphics/SVG/1.1/DTD/svg11.dtd">
<svg width="100%" height="100%" viewBox="0 0 86 59" version="1.1" xmlns="http://www.w3.org/2000/svg" xmlns:xlink="http://www.w3.org/1999/xlink" xml:space="preserve" xmlns:serif="http://www.serif.com/" style="fill-rule:evenodd;clip-rule:evenodd;stroke-linejoin:round;stroke-miterlimit:2;">
    <g transform="matrix(1,0,0,1,-2,-27)">
        <g>
            <g transform="matrix(1,0,0,1,0.00149955,10.356)">
                <path d="M45,43.293C48.63,43.293 51.924,41.812 54.306,39.423C56.679,37.044 58.147,33.763 58.147,30.146C58.147,22.896 52.25,16.999 45.001,16.999C37.751,16.999 31.854,22.896 31.854,30.146C31.854,33.764 33.323,37.043 35.696,39.423C38.077,41.812 41.369,43.293 45,43.293Z" style="fill:white;fill-rule:nonzero;"/>
            </g>
            <g transform="matrix(1,0,0,1,0.00149955,10.356)">
                <path d="M79.403,40.413C77.06,43.019 73.666,44.662 69.894,44.662C67.715,44.662 65.671,44.1 63.874,43.135C68.556,48.498 71.237,55.685 71.237,63.364C71.237,64.391 71.171,65.337 71.055,66.223C80.397,66.284 87.787,66.873 87.787,57.452C87.789,50.271 84.439,43.972 79.403,40.413Z" style="fill:white;fill-rule:nonzero;"/>
            </g>
            <g transform="matrix(1,0,0,1,0.00149955,10.356)">
                <path d="M69.895,41.998C72.691,41.998 75.227,40.857 77.061,39.018C78.888,37.186 80.018,34.66 80.018,31.873C80.018,26.291 75.477,21.75 69.895,21.75C64.313,21.75 59.772,26.292 59.772,31.873C59.772,34.66 60.902,37.185 62.73,39.018C64.563,40.857 67.099,41.998 69.895,41.998Z" style="fill:white;fill-rule:nonzero;"/>
            </g>
            <g transform="matrix(1,0,0,1,0.00149955,10.356)">
                <path d="M26.128,43.133C24.33,44.1 22.285,44.662 20.105,44.662C16.334,44.662 12.939,43.019 10.596,40.414C5.56,43.973 2.21,50.271 2.21,57.453C2.21,66.08 9.622,66.221 18.976,66.219C18.838,65.319 18.762,64.371 18.762,63.365C18.762,55.685 21.445,48.497 26.128,43.133Z" style="fill:white;fill-rule:nonzero;"/>
            </g>
            <g transform="matrix(1,0,0,1,0.00149955,10.356)">
                <path d="M20.105,41.998C22.901,41.998 25.437,40.857 27.271,39.018C29.098,37.186 30.228,34.66 30.228,31.873C30.228,26.291 25.687,21.75 20.105,21.75C14.523,21.75 9.982,26.292 9.982,31.873C9.982,34.66 11.112,37.185 12.94,39.018C14.774,40.857 17.309,41.998 20.105,41.998Z" style="fill:white;fill-rule:nonzero;"/>
            </g>
            <g transform="matrix(1,0,0,1,0.00149955,10.356)">
                <path d="M58.41,42.039C58.062,41.762 57.711,41.492 57.349,41.236C54.305,44.62 49.897,46.753 44.999,46.753C40.101,46.753 35.693,44.621 32.651,41.236C32.29,41.491 31.938,41.762 31.589,42.039C25.646,46.769 21.76,54.553 21.76,63.364C21.76,64.413 21.844,65.364 22.007,66.228C23.573,74.545 32.402,74.748 43.317,74.748C43.872,74.748 44.433,74.747 44.999,74.747C47.25,74.747 49.427,74.789 51.484,74.789C60.192,74.789 66.774,74.019 68.009,66.219C68.147,65.35 68.237,64.417 68.237,63.365C68.238,54.553 64.353,46.769 58.41,42.039Z" style="fill:white;fill-rule:nonzero;"/>
            </g>
        </g>
    </g>
</svg>
